<?xml version="1.0" encoding="UTF-8" standalone="no"?>
<!DOCTYPE svg PUBLIC "-//W3C//DTD SVG 1.1//EN"
 "http://www.w3.org/Graphics/SVG/1.1/DTD/svg11.dtd">
<!-- Generated by graphviz version 13.1.2 (20250808.2320)
 -->
<!-- Title: Tree Pages: 1 -->
<svg width="3274pt" height="770pt"
 viewBox="0.00 0.00 3274.00 770.00" xmlns="http://www.w3.org/2000/svg" xmlns:xlink="http://www.w3.org/1999/xlink">
<g id="graph0" class="graph" transform="scale(1 1) rotate(0) translate(4 766)">
<title>Tree</title>
<polygon fill="white" stroke="none" points="-4,4 -4,-766 3270,-766 3270,4 -4,4"/>
<!-- 0 -->
<g id="node1" class="node">
<title>0</title>
<path fill="#f6fdf1" stroke="black" d="M1743.75,-762C1743.75,-762 1553.75,-762 1553.75,-762 1547.75,-762 1541.75,-756 1541.75,-750 1541.75,-750 1541.75,-687.25 1541.75,-687.25 1541.75,-681.25 1547.75,-675.25 1553.75,-675.25 1553.75,-675.25 1743.75,-675.25 1743.75,-675.25 1749.75,-675.25 1755.75,-681.25 1755.75,-687.25 1755.75,-687.25 1755.75,-750 1755.75,-750 1755.75,-756 1749.75,-762 1743.75,-762"/>
<text xml:space="preserve" text-anchor="start" x="1601.12" y="-744.7" font-family="Helvetica,sans-Serif" font-size="14.00">weight ≤ 60.559</text>
<text xml:space="preserve" text-anchor="start" x="1613.5" y="-728.95" font-family="Helvetica,sans-Serif" font-size="14.00">gini = 0.737</text>
<text xml:space="preserve" text-anchor="start" x="1600.38" y="-713.2" font-family="Helvetica,sans-Serif" font-size="14.00">samples = 3213</text>
<text xml:space="preserve" text-anchor="start" x="1549.75" y="-697.45" font-family="Helvetica,sans-Serif" font-size="14.00">value = [819, 1055, 354, 892, 93]</text>
<text xml:space="preserve" text-anchor="start" x="1580.5" y="-681.7" font-family="Helvetica,sans-Serif" font-size="14.00">class = Normal Weight</text>
</g>
<!-- 1 -->
<g id="node2" class="node">
<title>1</title>
<path fill="#fbeadd" stroke="black" d="M1312.75,-589.25C1312.75,-589.25 1152.75,-589.25 1152.75,-589.25 1146.75,-589.25 1140.75,-583.25 1140.75,-577.25 1140.75,-577.25 1140.75,-514.5 1140.75,-514.5 1140.75,-508.5 1146.75,-502.5 1152.75,-502.5 1152.75,-502.5 1312.75,-502.5 1312.75,-502.5 1318.75,-502.5 1324.75,-508.5 1324.75,-514.5 1324.75,-514.5 1324.75,-577.25 1324.75,-577.25 1324.75,-583.25 1318.75,-589.25 1312.75,-589.25"/>
<text xml:space="preserve" text-anchor="start" x="1208.38" y="-571.95" font-family="Helvetica,sans-Serif" font-size="14.00">faf ≤ 1.0</text>
<text xml:space="preserve" text-anchor="start" x="1201.25" y="-556.2" font-family="Helvetica,sans-Serif" font-size="14.00">gini = 0.63</text>
<text xml:space="preserve" text-anchor="start" x="1184.38" y="-540.45" font-family="Helvetica,sans-Serif" font-size="14.00">samples = 1779</text>
<text xml:space="preserve" text-anchor="start" x="1148.75" y="-524.7" font-family="Helvetica,sans-Serif" font-size="14.00">value = [819, 337, 0, 622, 1]</text>
<text xml:space="preserve" text-anchor="start" x="1154.38" y="-508.95" font-family="Helvetica,sans-Serif" font-size="14.00">class = Insufficient Weight</text>
</g>
<!-- 0&#45;&gt;1 -->
<g id="edge1" class="edge">
<title>0&#45;&gt;1</title>
<path fill="none" stroke="black" d="M1544.31,-674.76C1480.48,-648.56 1399.17,-615.18 1335.62,-589.1"/>
<polygon fill="black" stroke="black" points="1337.16,-585.95 1326.58,-585.39 1334.5,-592.42 1337.16,-585.95"/>
<text xml:space="preserve" text-anchor="middle" x="1334.82" y="-602.45" font-family="Helvetica,sans-Serif" font-size="14.00">True</text>
</g>
<!-- 16 -->
<g id="node17" class="node">
<title>16</title>
<path fill="#d3f6bc" stroke="black" d="M2152.5,-589.25C2152.5,-589.25 1985,-589.25 1985,-589.25 1979,-589.25 1973,-583.25 1973,-577.25 1973,-577.25 1973,-514.5 1973,-514.5 1973,-508.5 1979,-502.5 1985,-502.5 1985,-502.5 2152.5,-502.5 2152.5,-502.5 2158.5,-502.5 2164.5,-508.5 2164.5,-514.5 2164.5,-514.5 2164.5,-577.25 2164.5,-577.25 2164.5,-583.25 2158.5,-589.25 2152.5,-589.25"/>
<text xml:space="preserve" text-anchor="start" x="2021.12" y="-571.95" font-family="Helvetica,sans-Serif" font-size="14.00">weight ≤ 87.478</text>
<text xml:space="preserve" text-anchor="start" x="2033.5" y="-556.2" font-family="Helvetica,sans-Serif" font-size="14.00">gini = 0.649</text>
<text xml:space="preserve" text-anchor="start" x="2020.38" y="-540.45" font-family="Helvetica,sans-Serif" font-size="14.00">samples = 1434</text>
<text xml:space="preserve" text-anchor="start" x="1981" y="-524.7" font-family="Helvetica,sans-Serif" font-size="14.00">value = [0, 718, 354, 270, 92]</text>
<text xml:space="preserve" text-anchor="start" x="2000.5" y="-508.95" font-family="Helvetica,sans-Serif" font-size="14.00">class = Normal Weight</text>
</g>
<!-- 0&#45;&gt;16 -->
<g id="edge16" class="edge">
<title>0&#45;&gt;16</title>
<path fill="none" stroke="black" d="M1754.19,-674.76C1817.72,-648.93 1898.39,-616.13 1962.13,-590.22"/>
<polygon fill="black" stroke="black" points="1963.26,-593.54 1971.21,-586.53 1960.63,-587.05 1963.26,-593.54"/>
<text xml:space="preserve" text-anchor="middle" x="1962.89" y="-603.57" font-family="Helvetica,sans-Serif" font-size="14.00">False</text>
</g>
<!-- 2 -->
<g id="node3" class="node">
<title>2</title>
<path fill="#a5a4f3" stroke="black" d="M698.75,-416.5C698.75,-416.5 538.75,-416.5 538.75,-416.5 532.75,-416.5 526.75,-410.5 526.75,-404.5 526.75,-404.5 526.75,-341.75 526.75,-341.75 526.75,-335.75 532.75,-329.75 538.75,-329.75 538.75,-329.75 698.75,-329.75 698.75,-329.75 704.75,-329.75 710.75,-335.75 710.75,-341.75 710.75,-341.75 710.75,-404.5 710.75,-404.5 710.75,-410.5 704.75,-416.5 698.75,-416.5"/>
<text xml:space="preserve" text-anchor="start" x="582.38" y="-399.2" font-family="Helvetica,sans-Serif" font-size="14.00">fcvc ≤ 2.455</text>
<text xml:space="preserve" text-anchor="start" x="583.5" y="-383.45" font-family="Helvetica,sans-Serif" font-size="14.00">gini = 0.567</text>
<text xml:space="preserve" text-anchor="start" x="570.38" y="-367.7" font-family="Helvetica,sans-Serif" font-size="14.00">samples = 1017</text>
<text xml:space="preserve" text-anchor="start" x="534.75" y="-351.95" font-family="Helvetica,sans-Serif" font-size="14.00">value = [240, 177, 0, 599, 1]</text>
<text xml:space="preserve" text-anchor="start" x="548.25" y="-336.2" font-family="Helvetica,sans-Serif" font-size="14.00">class = Obesity Type_II</text>
</g>
<!-- 1&#45;&gt;2 -->
<g id="edge2" class="edge">
<title>1&#45;&gt;2</title>
<path fill="none" stroke="black" d="M1140.5,-519.22C1028.17,-487.98 839,-435.38 721.94,-402.82"/>
<polygon fill="black" stroke="black" points="723.22,-399.55 712.65,-400.24 721.35,-406.29 723.22,-399.55"/>
</g>
<!-- 9 -->
<g id="node10" class="node">
<title>9</title>
<path fill="#eda775" stroke="black" d="M1309,-416.5C1309,-416.5 1156.5,-416.5 1156.5,-416.5 1150.5,-416.5 1144.5,-410.5 1144.5,-404.5 1144.5,-404.5 1144.5,-341.75 1144.5,-341.75 1144.5,-335.75 1150.5,-329.75 1156.5,-329.75 1156.5,-329.75 1309,-329.75 1309,-329.75 1315,-329.75 1321,-335.75 1321,-341.75 1321,-341.75 1321,-404.5 1321,-404.5 1321,-410.5 1315,-416.5 1309,-416.5"/>
<text xml:space="preserve" text-anchor="start" x="1190" y="-399.2" font-family="Helvetica,sans-Serif" font-size="14.00">height ≤ 1.671</text>
<text xml:space="preserve" text-anchor="start" x="1197.5" y="-383.45" font-family="Helvetica,sans-Serif" font-size="14.00">gini = 0.378</text>
<text xml:space="preserve" text-anchor="start" x="1188.12" y="-367.7" font-family="Helvetica,sans-Serif" font-size="14.00">samples = 762</text>
<text xml:space="preserve" text-anchor="start" x="1152.5" y="-351.95" font-family="Helvetica,sans-Serif" font-size="14.00">value = [579, 160, 0, 23, 0]</text>
<text xml:space="preserve" text-anchor="start" x="1154.38" y="-336.2" font-family="Helvetica,sans-Serif" font-size="14.00">class = Insufficient Weight</text>
</g>
<!-- 1&#45;&gt;9 -->
<g id="edge9" class="edge">
<title>1&#45;&gt;9</title>
<path fill="none" stroke="black" d="M1232.75,-502.23C1232.75,-479.82 1232.75,-452.11 1232.75,-428.21"/>
<polygon fill="black" stroke="black" points="1236.25,-428.33 1232.75,-418.33 1229.25,-428.33 1236.25,-428.33"/>
</g>
<!-- 3 -->
<g id="node4" class="node">
<title>3</title>
<path fill="#6c6aeb" stroke="black" d="M386.38,-243.75C386.38,-243.75 185.12,-243.75 185.12,-243.75 179.12,-243.75 173.12,-237.75 173.12,-231.75 173.12,-231.75 173.12,-169 173.12,-169 173.12,-163 179.12,-157 185.12,-157 185.12,-157 386.38,-157 386.38,-157 392.38,-157 398.38,-163 398.38,-169 398.38,-169 398.38,-231.75 398.38,-231.75 398.38,-237.75 392.38,-243.75 386.38,-243.75"/>
<text xml:space="preserve" text-anchor="start" x="243" y="-226.45" font-family="Helvetica,sans-Serif" font-size="14.00">height ≤ 1.673</text>
<text xml:space="preserve" text-anchor="start" x="250.5" y="-210.7" font-family="Helvetica,sans-Serif" font-size="14.00">gini = 0.354</text>
<text xml:space="preserve" text-anchor="start" x="241.12" y="-194.95" font-family="Helvetica,sans-Serif" font-size="14.00">samples = 656</text>
<text xml:space="preserve" text-anchor="start" x="181.12" y="-179.2" font-family="Helvetica,sans-Serif" font-size="14.00">value = [91.0, 48.0, 0.0, 517.0, 0.0]</text>
<text xml:space="preserve" text-anchor="start" x="215.25" y="-163.45" font-family="Helvetica,sans-Serif" font-size="14.00">class = Obesity Type_II</text>
</g>
<!-- 2&#45;&gt;3 -->
<g id="edge3" class="edge">
<title>2&#45;&gt;3</title>
<path fill="none" stroke="black" d="M535.15,-329.26C487.66,-304.91 428.08,-274.36 379.07,-249.22"/>
<polygon fill="black" stroke="black" points="380.94,-246.25 370.44,-244.8 377.74,-252.48 380.94,-246.25"/>
</g>
<!-- 6 -->
<g id="node7" class="node">
<title>6</title>
<path fill="#fdf4ee" stroke="black" d="M695,-243.75C695,-243.75 542.5,-243.75 542.5,-243.75 536.5,-243.75 530.5,-237.75 530.5,-231.75 530.5,-231.75 530.5,-169 530.5,-169 530.5,-163 536.5,-157 542.5,-157 542.5,-157 695,-157 695,-157 701,-157 707,-163 707,-169 707,-169 707,-231.75 707,-231.75 707,-237.75 701,-243.75 695,-243.75"/>
<text xml:space="preserve" text-anchor="start" x="576" y="-226.45" font-family="Helvetica,sans-Serif" font-size="14.00">height ≤ 1.676</text>
<text xml:space="preserve" text-anchor="start" x="587.25" y="-210.7" font-family="Helvetica,sans-Serif" font-size="14.00">gini = 0.65</text>
<text xml:space="preserve" text-anchor="start" x="574.12" y="-194.95" font-family="Helvetica,sans-Serif" font-size="14.00">samples = 361</text>
<text xml:space="preserve" text-anchor="start" x="538.5" y="-179.2" font-family="Helvetica,sans-Serif" font-size="14.00">value = [149, 129, 0, 82, 1]</text>
<text xml:space="preserve" text-anchor="start" x="540.38" y="-163.45" font-family="Helvetica,sans-Serif" font-size="14.00">class = Insufficient Weight</text>
</g>
<!-- 2&#45;&gt;6 -->
<g id="edge6" class="edge">
<title>2&#45;&gt;6</title>
<path fill="none" stroke="black" d="M618.75,-329.48C618.75,-307.07 618.75,-279.36 618.75,-255.46"/>
<polygon fill="black" stroke="black" points="622.25,-255.58 618.75,-245.58 615.25,-255.58 622.25,-255.58"/>
</g>
<!-- 4 -->
<g id="node5" class="node">
<title>4</title>
<path fill="#5b59e9" stroke="black" d="M149.5,-71C149.5,-71 12,-71 12,-71 6,-71 0,-65 0,-59 0,-59 0,-12 0,-12 0,-6 6,0 12,0 12,0 149.5,0 149.5,0 155.5,0 161.5,-6 161.5,-12 161.5,-12 161.5,-59 161.5,-59 161.5,-65 155.5,-71 149.5,-71"/>
<text xml:space="preserve" text-anchor="start" x="45.5" y="-53.7" font-family="Helvetica,sans-Serif" font-size="14.00">gini = 0.241</text>
<text xml:space="preserve" text-anchor="start" x="36.12" y="-37.95" font-family="Helvetica,sans-Serif" font-size="14.00">samples = 323</text>
<text xml:space="preserve" text-anchor="start" x="8" y="-22.2" font-family="Helvetica,sans-Serif" font-size="14.00">value = [1, 44, 0, 278, 0]</text>
<text xml:space="preserve" text-anchor="start" x="10.25" y="-6.45" font-family="Helvetica,sans-Serif" font-size="14.00">class = Obesity Type_II</text>
</g>
<!-- 3&#45;&gt;4 -->
<g id="edge4" class="edge">
<title>3&#45;&gt;4</title>
<path fill="none" stroke="black" d="M231.89,-156.58C201.44,-132.39 163.54,-102.28 133.31,-78.26"/>
<polygon fill="black" stroke="black" points="135.79,-75.76 125.78,-72.28 131.43,-81.24 135.79,-75.76"/>
</g>
<!-- 5 -->
<g id="node6" class="node">
<title>5</title>
<path fill="#8786ef" stroke="black" d="M354.5,-71C354.5,-71 217,-71 217,-71 211,-71 205,-65 205,-59 205,-59 205,-12 205,-12 205,-6 211,0 217,0 217,0 354.5,0 354.5,0 360.5,0 366.5,-6 366.5,-12 366.5,-12 366.5,-59 366.5,-59 366.5,-65 360.5,-71 354.5,-71"/>
<text xml:space="preserve" text-anchor="start" x="250.5" y="-53.7" font-family="Helvetica,sans-Serif" font-size="14.00">gini = 0.412</text>
<text xml:space="preserve" text-anchor="start" x="241.12" y="-37.95" font-family="Helvetica,sans-Serif" font-size="14.00">samples = 333</text>
<text xml:space="preserve" text-anchor="start" x="213" y="-22.2" font-family="Helvetica,sans-Serif" font-size="14.00">value = [90, 4, 0, 239, 0]</text>
<text xml:space="preserve" text-anchor="start" x="215.25" y="-6.45" font-family="Helvetica,sans-Serif" font-size="14.00">class = Obesity Type_II</text>
</g>
<!-- 3&#45;&gt;5 -->
<g id="edge5" class="edge">
<title>3&#45;&gt;5</title>
<path fill="none" stroke="black" d="M285.75,-156.58C285.75,-133.84 285.75,-105.87 285.75,-82.65"/>
<polygon fill="black" stroke="black" points="289.25,-82.85 285.75,-72.85 282.25,-82.85 289.25,-82.85"/>
</g>
<!-- 7 -->
<g id="node8" class="node">
<title>7</title>
<path fill="#c7f4ab" stroke="black" d="M565.88,-71C565.88,-71 421.62,-71 421.62,-71 415.62,-71 409.62,-65 409.62,-59 409.62,-59 409.62,-12 409.62,-12 409.62,-6 415.62,0 421.62,0 421.62,0 565.88,0 565.88,0 571.88,0 577.88,-6 577.88,-12 577.88,-12 577.88,-59 577.88,-59 577.88,-65 571.88,-71 565.88,-71"/>
<text xml:space="preserve" text-anchor="start" x="458.5" y="-53.7" font-family="Helvetica,sans-Serif" font-size="14.00">gini = 0.551</text>
<text xml:space="preserve" text-anchor="start" x="449.12" y="-37.95" font-family="Helvetica,sans-Serif" font-size="14.00">samples = 201</text>
<text xml:space="preserve" text-anchor="start" x="417.62" y="-22.2" font-family="Helvetica,sans-Serif" font-size="14.00">value = [22, 119, 0, 59, 1]</text>
<text xml:space="preserve" text-anchor="start" x="425.5" y="-6.45" font-family="Helvetica,sans-Serif" font-size="14.00">class = Normal Weight</text>
</g>
<!-- 6&#45;&gt;7 -->
<g id="edge7" class="edge">
<title>6&#45;&gt;7</title>
<path fill="none" stroke="black" d="M585.91,-156.58C567.9,-133.12 545.62,-104.08 527.47,-80.44"/>
<polygon fill="black" stroke="black" points="530.27,-78.34 521.41,-72.54 524.72,-82.6 530.27,-78.34"/>
</g>
<!-- 8 -->
<g id="node9" class="node">
<title>8</title>
<path fill="#eb9f69" stroke="black" d="M782.12,-71C782.12,-71 633.38,-71 633.38,-71 627.38,-71 621.38,-65 621.38,-59 621.38,-59 621.38,-12 621.38,-12 621.38,-6 627.38,0 633.38,0 633.38,0 782.12,0 782.12,0 788.12,0 794.12,-6 794.12,-12 794.12,-12 794.12,-59 794.12,-59 794.12,-65 788.12,-71 782.12,-71"/>
<text xml:space="preserve" text-anchor="start" x="672.5" y="-53.7" font-family="Helvetica,sans-Serif" font-size="14.00">gini = 0.345</text>
<text xml:space="preserve" text-anchor="start" x="663.12" y="-37.95" font-family="Helvetica,sans-Serif" font-size="14.00">samples = 160</text>
<text xml:space="preserve" text-anchor="start" x="631.25" y="-22.2" font-family="Helvetica,sans-Serif" font-size="14.00">value = [127, 10, 0, 23, 0]</text>
<text xml:space="preserve" text-anchor="start" x="629.38" y="-6.45" font-family="Helvetica,sans-Serif" font-size="14.00">class = Insufficient Weight</text>
</g>
<!-- 6&#45;&gt;8 -->
<g id="edge8" class="edge">
<title>6&#45;&gt;8</title>
<path fill="none" stroke="black" d="M642.13,-156.58C654.79,-133.43 670.4,-104.85 683.22,-81.38"/>
<polygon fill="black" stroke="black" points="686.27,-83.12 687.99,-72.66 680.12,-79.76 686.27,-83.12"/>
</g>
<!-- 10 -->
<g id="node11" class="node">
<title>10</title>
<path fill="#b5f090" stroke="black" d="M1197.88,-243.75C1197.88,-243.75 1053.62,-243.75 1053.62,-243.75 1047.62,-243.75 1041.62,-237.75 1041.62,-231.75 1041.62,-231.75 1041.62,-169 1041.62,-169 1041.62,-163 1047.62,-157 1053.62,-157 1053.62,-157 1197.88,-157 1197.88,-157 1203.88,-157 1209.88,-163 1209.88,-169 1209.88,-169 1209.88,-231.75 1209.88,-231.75 1209.88,-237.75 1203.88,-243.75 1197.88,-243.75"/>
<text xml:space="preserve" text-anchor="start" x="1078.12" y="-226.45" font-family="Helvetica,sans-Serif" font-size="14.00">weight ≤ 49.908</text>
<text xml:space="preserve" text-anchor="start" x="1090.5" y="-210.7" font-family="Helvetica,sans-Serif" font-size="14.00">gini = 0.468</text>
<text xml:space="preserve" text-anchor="start" x="1081.12" y="-194.95" font-family="Helvetica,sans-Serif" font-size="14.00">samples = 192</text>
<text xml:space="preserve" text-anchor="start" x="1049.62" y="-179.2" font-family="Helvetica,sans-Serif" font-size="14.00">value = [51, 130, 0, 11, 0]</text>
<text xml:space="preserve" text-anchor="start" x="1057.5" y="-163.45" font-family="Helvetica,sans-Serif" font-size="14.00">class = Normal Weight</text>
</g>
<!-- 9&#45;&gt;10 -->
<g id="edge10" class="edge">
<title>9&#45;&gt;10</title>
<path fill="none" stroke="black" d="M1206.03,-329.48C1191.6,-306.46 1173.67,-277.85 1158.42,-253.51"/>
<polygon fill="black" stroke="black" points="1161.58,-251.97 1153.31,-245.35 1155.65,-255.68 1161.58,-251.97"/>
</g>
<!-- 13 -->
<g id="node14" class="node">
<title>13</title>
<path fill="#e78b48" stroke="black" d="M1414.12,-243.75C1414.12,-243.75 1265.38,-243.75 1265.38,-243.75 1259.38,-243.75 1253.38,-237.75 1253.38,-231.75 1253.38,-231.75 1253.38,-169 1253.38,-169 1253.38,-163 1259.38,-157 1265.38,-157 1265.38,-157 1414.12,-157 1414.12,-157 1420.12,-157 1426.12,-163 1426.12,-169 1426.12,-169 1426.12,-231.75 1426.12,-231.75 1426.12,-237.75 1420.12,-243.75 1414.12,-243.75"/>
<text xml:space="preserve" text-anchor="start" x="1297" y="-226.45" font-family="Helvetica,sans-Serif" font-size="14.00">height ≤ 1.701</text>
<text xml:space="preserve" text-anchor="start" x="1304.5" y="-210.7" font-family="Helvetica,sans-Serif" font-size="14.00">gini = 0.139</text>
<text xml:space="preserve" text-anchor="start" x="1295.12" y="-194.95" font-family="Helvetica,sans-Serif" font-size="14.00">samples = 570</text>
<text xml:space="preserve" text-anchor="start" x="1263.25" y="-179.2" font-family="Helvetica,sans-Serif" font-size="14.00">value = [528, 30, 0, 12, 0]</text>
<text xml:space="preserve" text-anchor="start" x="1261.38" y="-163.45" font-family="Helvetica,sans-Serif" font-size="14.00">class = Insufficient Weight</text>
</g>
<!-- 9&#45;&gt;13 -->
<g id="edge13" class="edge">
<title>9&#45;&gt;13</title>
<path fill="none" stroke="black" d="M1259.47,-329.48C1273.9,-306.46 1291.83,-277.85 1307.08,-253.51"/>
<polygon fill="black" stroke="black" points="1309.85,-255.68 1312.19,-245.35 1303.92,-251.97 1309.85,-255.68"/>
</g>
<!-- 11 -->
<g id="node12" class="node">
<title>11</title>
<path fill="#f0b68c" stroke="black" d="M998.12,-71C998.12,-71 849.38,-71 849.38,-71 843.38,-71 837.38,-65 837.38,-59 837.38,-59 837.38,-12 837.38,-12 837.38,-6 843.38,0 849.38,0 849.38,0 998.12,0 998.12,0 1004.12,0 1010.12,-6 1010.12,-12 1010.12,-12 1010.12,-59 1010.12,-59 1010.12,-65 1004.12,-71 998.12,-71"/>
<text xml:space="preserve" text-anchor="start" x="888.5" y="-53.7" font-family="Helvetica,sans-Serif" font-size="14.00">gini = 0.461</text>
<text xml:space="preserve" text-anchor="start" x="882.88" y="-37.95" font-family="Helvetica,sans-Serif" font-size="14.00">samples = 64</text>
<text xml:space="preserve" text-anchor="start" x="854.75" y="-22.2" font-family="Helvetica,sans-Serif" font-size="14.00">value = [44, 16, 0, 4, 0]</text>
<text xml:space="preserve" text-anchor="start" x="845.38" y="-6.45" font-family="Helvetica,sans-Serif" font-size="14.00">class = Insufficient Weight</text>
</g>
<!-- 10&#45;&gt;11 -->
<g id="edge11" class="edge">
<title>10&#45;&gt;11</title>
<path fill="none" stroke="black" d="M1072.68,-156.58C1042.67,-132.39 1005.33,-102.28 975.54,-78.26"/>
<polygon fill="black" stroke="black" points="978.11,-75.84 968.13,-72.28 973.72,-81.29 978.11,-75.84"/>
</g>
<!-- 12 -->
<g id="node13" class="node">
<title>12</title>
<path fill="#8ae850" stroke="black" d="M1194.38,-71C1194.38,-71 1065.12,-71 1065.12,-71 1059.12,-71 1053.12,-65 1053.12,-59 1053.12,-59 1053.12,-12 1053.12,-12 1053.12,-6 1059.12,0 1065.12,0 1065.12,0 1194.38,0 1194.38,0 1200.38,0 1206.38,-6 1206.38,-12 1206.38,-12 1206.38,-59 1206.38,-59 1206.38,-65 1200.38,-71 1194.38,-71"/>
<text xml:space="preserve" text-anchor="start" x="1094.5" y="-53.7" font-family="Helvetica,sans-Serif" font-size="14.00">gini = 0.201</text>
<text xml:space="preserve" text-anchor="start" x="1085.12" y="-37.95" font-family="Helvetica,sans-Serif" font-size="14.00">samples = 128</text>
<text xml:space="preserve" text-anchor="start" x="1061.12" y="-22.2" font-family="Helvetica,sans-Serif" font-size="14.00">value = [7, 114, 0, 7, 0]</text>
<text xml:space="preserve" text-anchor="start" x="1061.5" y="-6.45" font-family="Helvetica,sans-Serif" font-size="14.00">class = Normal Weight</text>
</g>
<!-- 10&#45;&gt;12 -->
<g id="edge12" class="edge">
<title>10&#45;&gt;12</title>
<path fill="none" stroke="black" d="M1126.8,-156.58C1127.36,-133.84 1128.05,-105.87 1128.62,-82.65"/>
<polygon fill="black" stroke="black" points="1132.11,-82.93 1128.86,-72.85 1125.11,-82.76 1132.11,-82.93"/>
</g>
<!-- 14 -->
<g id="node15" class="node">
<title>14</title>
<path fill="#eca26d" stroke="black" d="M1410.12,-71C1410.12,-71 1261.38,-71 1261.38,-71 1255.38,-71 1249.38,-65 1249.38,-59 1249.38,-59 1249.38,-12 1249.38,-12 1249.38,-6 1255.38,0 1261.38,0 1261.38,0 1410.12,0 1410.12,0 1416.12,0 1422.12,-6 1422.12,-12 1422.12,-12 1422.12,-59 1422.12,-59 1422.12,-65 1416.12,-71 1410.12,-71"/>
<text xml:space="preserve" text-anchor="start" x="1300.5" y="-53.7" font-family="Helvetica,sans-Serif" font-size="14.00">gini = 0.335</text>
<text xml:space="preserve" text-anchor="start" x="1291.12" y="-37.95" font-family="Helvetica,sans-Serif" font-size="14.00">samples = 124</text>
<text xml:space="preserve" text-anchor="start" x="1266.75" y="-22.2" font-family="Helvetica,sans-Serif" font-size="14.00">value = [98, 25, 0, 1, 0]</text>
<text xml:space="preserve" text-anchor="start" x="1257.38" y="-6.45" font-family="Helvetica,sans-Serif" font-size="14.00">class = Insufficient Weight</text>
</g>
<!-- 13&#45;&gt;14 -->
<g id="edge14" class="edge">
<title>13&#45;&gt;14</title>
<path fill="none" stroke="black" d="M1338.7,-156.58C1338.14,-133.84 1337.45,-105.87 1336.88,-82.65"/>
<polygon fill="black" stroke="black" points="1340.39,-82.76 1336.64,-72.85 1333.39,-82.93 1340.39,-82.76"/>
</g>
<!-- 15 -->
<g id="node16" class="node">
<title>15</title>
<path fill="#e68640" stroke="black" d="M1626.12,-71C1626.12,-71 1477.38,-71 1477.38,-71 1471.38,-71 1465.38,-65 1465.38,-59 1465.38,-59 1465.38,-12 1465.38,-12 1465.38,-6 1471.38,0 1477.38,0 1477.38,0 1626.12,0 1626.12,0 1632.12,0 1638.12,-6 1638.12,-12 1638.12,-12 1638.12,-59 1638.12,-59 1638.12,-65 1632.12,-71 1626.12,-71"/>
<text xml:space="preserve" text-anchor="start" x="1520.25" y="-53.7" font-family="Helvetica,sans-Serif" font-size="14.00">gini = 0.07</text>
<text xml:space="preserve" text-anchor="start" x="1507.12" y="-37.95" font-family="Helvetica,sans-Serif" font-size="14.00">samples = 446</text>
<text xml:space="preserve" text-anchor="start" x="1479.38" y="-22.2" font-family="Helvetica,sans-Serif" font-size="14.00">value = [430, 5, 0, 11, 0]</text>
<text xml:space="preserve" text-anchor="start" x="1473.38" y="-6.45" font-family="Helvetica,sans-Serif" font-size="14.00">class = Insufficient Weight</text>
</g>
<!-- 13&#45;&gt;15 -->
<g id="edge15" class="edge">
<title>13&#45;&gt;15</title>
<path fill="none" stroke="black" d="M1395.45,-156.58C1426.94,-132.39 1466.13,-102.28 1497.4,-78.26"/>
<polygon fill="black" stroke="black" points="1499.41,-81.12 1505.21,-72.26 1495.15,-75.57 1499.41,-81.12"/>
</g>
<!-- 17 -->
<g id="node18" class="node">
<title>17</title>
<path fill="#c3f3a4" stroke="black" d="M2148.75,-416.5C2148.75,-416.5 1988.75,-416.5 1988.75,-416.5 1982.75,-416.5 1976.75,-410.5 1976.75,-404.5 1976.75,-404.5 1976.75,-341.75 1976.75,-341.75 1976.75,-335.75 1982.75,-329.75 1988.75,-329.75 1988.75,-329.75 2148.75,-329.75 2148.75,-329.75 2154.75,-329.75 2160.75,-335.75 2160.75,-341.75 2160.75,-341.75 2160.75,-404.5 2160.75,-404.5 2160.75,-410.5 2154.75,-416.5 2148.75,-416.5"/>
<text xml:space="preserve" text-anchor="start" x="2033.88" y="-399.2" font-family="Helvetica,sans-Serif" font-size="14.00">ncp ≤ 2.511</text>
<text xml:space="preserve" text-anchor="start" x="2033.5" y="-383.45" font-family="Helvetica,sans-Serif" font-size="14.00">gini = 0.564</text>
<text xml:space="preserve" text-anchor="start" x="2020.38" y="-367.7" font-family="Helvetica,sans-Serif" font-size="14.00">samples = 1037</text>
<text xml:space="preserve" text-anchor="start" x="1984.75" y="-351.95" font-family="Helvetica,sans-Serif" font-size="14.00">value = [0, 621, 74, 270, 72]</text>
<text xml:space="preserve" text-anchor="start" x="2000.5" y="-336.2" font-family="Helvetica,sans-Serif" font-size="14.00">class = Normal Weight</text>
</g>
<!-- 16&#45;&gt;17 -->
<g id="edge17" class="edge">
<title>16&#45;&gt;17</title>
<path fill="none" stroke="black" d="M2068.75,-502.23C2068.75,-479.82 2068.75,-452.11 2068.75,-428.21"/>
<polygon fill="black" stroke="black" points="2072.25,-428.33 2068.75,-418.33 2065.25,-428.33 2072.25,-428.33"/>
</g>
<!-- 24 -->
<g id="node25" class="node">
<title>24</title>
<path fill="#86efdc" stroke="black" d="M2761.25,-416.5C2761.25,-416.5 2616.25,-416.5 2616.25,-416.5 2610.25,-416.5 2604.25,-410.5 2604.25,-404.5 2604.25,-404.5 2604.25,-341.75 2604.25,-341.75 2604.25,-335.75 2610.25,-329.75 2616.25,-329.75 2616.25,-329.75 2761.25,-329.75 2761.25,-329.75 2767.25,-329.75 2773.25,-335.75 2773.25,-341.75 2773.25,-341.75 2773.25,-404.5 2773.25,-404.5 2773.25,-410.5 2767.25,-416.5 2761.25,-416.5"/>
<text xml:space="preserve" text-anchor="start" x="2656.88" y="-399.2" font-family="Helvetica,sans-Serif" font-size="14.00">faf ≤ 1.335</text>
<text xml:space="preserve" text-anchor="start" x="2657.25" y="-383.45" font-family="Helvetica,sans-Serif" font-size="14.00">gini = 0.44</text>
<text xml:space="preserve" text-anchor="start" x="2644.12" y="-367.7" font-family="Helvetica,sans-Serif" font-size="14.00">samples = 397</text>
<text xml:space="preserve" text-anchor="start" x="2612.25" y="-351.95" font-family="Helvetica,sans-Serif" font-size="14.00">value = [0, 97, 280, 0, 20]</text>
<text xml:space="preserve" text-anchor="start" x="2620.12" y="-336.2" font-family="Helvetica,sans-Serif" font-size="14.00">class = Obesity Type_I</text>
</g>
<!-- 16&#45;&gt;24 -->
<g id="edge24" class="edge">
<title>16&#45;&gt;24</title>
<path fill="none" stroke="black" d="M2164.94,-518.38C2281.42,-486.3 2476.42,-432.6 2592.79,-400.55"/>
<polygon fill="black" stroke="black" points="2593.63,-403.95 2602.34,-397.92 2591.77,-397.2 2593.63,-403.95"/>
</g>
<!-- 18 -->
<g id="node19" class="node">
<title>18</title>
<path fill="#a2a1f3" stroke="black" d="M2033.25,-243.75C2033.25,-243.75 1882.25,-243.75 1882.25,-243.75 1876.25,-243.75 1870.25,-237.75 1870.25,-231.75 1870.25,-231.75 1870.25,-169 1870.25,-169 1870.25,-163 1876.25,-157 1882.25,-157 1882.25,-157 2033.25,-157 2033.25,-157 2039.25,-157 2045.25,-163 2045.25,-169 2045.25,-169 2045.25,-231.75 2045.25,-231.75 2045.25,-237.75 2039.25,-243.75 2033.25,-243.75"/>
<text xml:space="preserve" text-anchor="start" x="1910.12" y="-226.45" font-family="Helvetica,sans-Serif" font-size="14.00">weight ≤ 74.902</text>
<text xml:space="preserve" text-anchor="start" x="1922.5" y="-210.7" font-family="Helvetica,sans-Serif" font-size="14.00">gini = 0.589</text>
<text xml:space="preserve" text-anchor="start" x="1913.12" y="-194.95" font-family="Helvetica,sans-Serif" font-size="14.00">samples = 189</text>
<text xml:space="preserve" text-anchor="start" x="1878.25" y="-179.2" font-family="Helvetica,sans-Serif" font-size="14.00">value = [0, 15, 40, 111, 23]</text>
<text xml:space="preserve" text-anchor="start" x="1887.25" y="-163.45" font-family="Helvetica,sans-Serif" font-size="14.00">class = Obesity Type_II</text>
</g>
<!-- 17&#45;&gt;18 -->
<g id="edge18" class="edge">
<title>17&#45;&gt;18</title>
<path fill="none" stroke="black" d="M2041.03,-329.48C2026.06,-306.46 2007.46,-277.85 1991.64,-253.51"/>
<polygon fill="black" stroke="black" points="1994.71,-251.82 1986.33,-245.34 1988.85,-255.63 1994.71,-251.82"/>
</g>
<!-- 21 -->
<g id="node22" class="node">
<title>21</title>
<path fill="#a9ee7f" stroke="black" d="M2260.75,-243.75C2260.75,-243.75 2100.75,-243.75 2100.75,-243.75 2094.75,-243.75 2088.75,-237.75 2088.75,-231.75 2088.75,-231.75 2088.75,-169 2088.75,-169 2088.75,-163 2094.75,-157 2100.75,-157 2100.75,-157 2260.75,-157 2260.75,-157 2266.75,-157 2272.75,-163 2272.75,-169 2272.75,-169 2272.75,-231.75 2272.75,-231.75 2272.75,-237.75 2266.75,-243.75 2260.75,-243.75"/>
<text xml:space="preserve" text-anchor="start" x="2144.38" y="-226.45" font-family="Helvetica,sans-Serif" font-size="14.00">fcvc ≤ 2.342</text>
<text xml:space="preserve" text-anchor="start" x="2145.5" y="-210.7" font-family="Helvetica,sans-Serif" font-size="14.00">gini = 0.449</text>
<text xml:space="preserve" text-anchor="start" x="2136.12" y="-194.95" font-family="Helvetica,sans-Serif" font-size="14.00">samples = 848</text>
<text xml:space="preserve" text-anchor="start" x="2096.75" y="-179.2" font-family="Helvetica,sans-Serif" font-size="14.00">value = [0, 606, 34, 159, 49]</text>
<text xml:space="preserve" text-anchor="start" x="2112.5" y="-163.45" font-family="Helvetica,sans-Serif" font-size="14.00">class = Normal Weight</text>
</g>
<!-- 17&#45;&gt;21 -->
<g id="edge21" class="edge">
<title>17&#45;&gt;21</title>
<path fill="none" stroke="black" d="M2096.72,-329.48C2111.82,-306.46 2130.59,-277.85 2146.55,-253.51"/>
<polygon fill="black" stroke="black" points="2149.36,-255.62 2151.91,-245.34 2143.5,-251.78 2149.36,-255.62"/>
</g>
<!-- 19 -->
<g id="node20" class="node">
<title>19</title>
<path fill="#4a47e7" stroke="black" d="M1826.25,-71C1826.25,-71 1693.25,-71 1693.25,-71 1687.25,-71 1681.25,-65 1681.25,-59 1681.25,-59 1681.25,-12 1681.25,-12 1681.25,-6 1687.25,0 1693.25,0 1693.25,0 1826.25,0 1826.25,0 1832.25,0 1838.25,-6 1838.25,-12 1838.25,-12 1838.25,-59 1838.25,-59 1838.25,-65 1832.25,-71 1826.25,-71"/>
<text xml:space="preserve" text-anchor="start" x="1724.5" y="-53.7" font-family="Helvetica,sans-Serif" font-size="14.00">gini = 0.126</text>
<text xml:space="preserve" text-anchor="start" x="1715.12" y="-37.95" font-family="Helvetica,sans-Serif" font-size="14.00">samples = 104</text>
<text xml:space="preserve" text-anchor="start" x="1694.5" y="-22.2" font-family="Helvetica,sans-Serif" font-size="14.00">value = [0, 7, 0, 97, 0]</text>
<text xml:space="preserve" text-anchor="start" x="1689.25" y="-6.45" font-family="Helvetica,sans-Serif" font-size="14.00">class = Obesity Type_II</text>
</g>
<!-- 18&#45;&gt;19 -->
<g id="edge19" class="edge">
<title>18&#45;&gt;19</title>
<path fill="none" stroke="black" d="M1905.73,-156.58C1876.45,-132.49 1840.03,-102.54 1810.89,-78.57"/>
<polygon fill="black" stroke="black" points="1813.21,-75.95 1803.27,-72.3 1808.77,-81.35 1813.21,-75.95"/>
</g>
<!-- 20 -->
<g id="node21" class="node">
<title>20</title>
<path fill="#c9f8ef" stroke="black" d="M2030.5,-71C2030.5,-71 1893,-71 1893,-71 1887,-71 1881,-65 1881,-59 1881,-59 1881,-12 1881,-12 1881,-6 1887,0 1893,0 1893,0 2030.5,0 2030.5,0 2036.5,0 2042.5,-6 2042.5,-12 2042.5,-12 2042.5,-59 2042.5,-59 2042.5,-65 2036.5,-71 2030.5,-71"/>
<text xml:space="preserve" text-anchor="start" x="1926.5" y="-53.7" font-family="Helvetica,sans-Serif" font-size="14.00">gini = 0.669</text>
<text xml:space="preserve" text-anchor="start" x="1920.88" y="-37.95" font-family="Helvetica,sans-Serif" font-size="14.00">samples = 85</text>
<text xml:space="preserve" text-anchor="start" x="1889" y="-22.2" font-family="Helvetica,sans-Serif" font-size="14.00">value = [0, 8, 40, 14, 23]</text>
<text xml:space="preserve" text-anchor="start" x="1893.12" y="-6.45" font-family="Helvetica,sans-Serif" font-size="14.00">class = Obesity Type_I</text>
</g>
<!-- 18&#45;&gt;20 -->
<g id="edge20" class="edge">
<title>18&#45;&gt;20</title>
<path fill="none" stroke="black" d="M1958.8,-156.58C1959.36,-133.84 1960.05,-105.87 1960.62,-82.65"/>
<polygon fill="black" stroke="black" points="1964.11,-82.93 1960.86,-72.85 1957.11,-82.76 1964.11,-82.93"/>
</g>
<!-- 22 -->
<g id="node23" class="node">
<title>22</title>
<path fill="#ccf5b3" stroke="black" d="M2257.75,-71C2257.75,-71 2097.75,-71 2097.75,-71 2091.75,-71 2085.75,-65 2085.75,-59 2085.75,-59 2085.75,-12 2085.75,-12 2085.75,-6 2091.75,0 2097.75,0 2097.75,0 2257.75,0 2257.75,0 2263.75,0 2269.75,-6 2269.75,-12 2269.75,-12 2269.75,-59 2269.75,-59 2269.75,-65 2263.75,-71 2257.75,-71"/>
<text xml:space="preserve" text-anchor="start" x="2142.5" y="-53.7" font-family="Helvetica,sans-Serif" font-size="14.00">gini = 0.591</text>
<text xml:space="preserve" text-anchor="start" x="2133.12" y="-37.95" font-family="Helvetica,sans-Serif" font-size="14.00">samples = 540</text>
<text xml:space="preserve" text-anchor="start" x="2093.75" y="-22.2" font-family="Helvetica,sans-Serif" font-size="14.00">value = [0, 303, 34, 155, 48]</text>
<text xml:space="preserve" text-anchor="start" x="2109.5" y="-6.45" font-family="Helvetica,sans-Serif" font-size="14.00">class = Normal Weight</text>
</g>
<!-- 21&#45;&gt;22 -->
<g id="edge22" class="edge">
<title>21&#45;&gt;22</title>
<path fill="none" stroke="black" d="M2179.96,-156.58C2179.54,-133.84 2179.03,-105.87 2178.6,-82.65"/>
<polygon fill="black" stroke="black" points="2182.1,-82.78 2178.42,-72.85 2175.1,-82.91 2182.1,-82.78"/>
</g>
<!-- 23 -->
<g id="node24" class="node">
<title>23</title>
<path fill="#7de53c" stroke="black" d="M2454.75,-71C2454.75,-71 2324.75,-71 2324.75,-71 2318.75,-71 2312.75,-65 2312.75,-59 2312.75,-59 2312.75,-12 2312.75,-12 2312.75,-6 2318.75,0 2324.75,0 2324.75,0 2454.75,0 2454.75,0 2460.75,0 2466.75,-6 2466.75,-12 2466.75,-12 2466.75,-59 2466.75,-59 2466.75,-65 2460.75,-71 2454.75,-71"/>
<text xml:space="preserve" text-anchor="start" x="2354.5" y="-53.7" font-family="Helvetica,sans-Serif" font-size="14.00">gini = 0.032</text>
<text xml:space="preserve" text-anchor="start" x="2345.12" y="-37.95" font-family="Helvetica,sans-Serif" font-size="14.00">samples = 308</text>
<text xml:space="preserve" text-anchor="start" x="2320.75" y="-22.2" font-family="Helvetica,sans-Serif" font-size="14.00">value = [0, 303, 0, 4, 1]</text>
<text xml:space="preserve" text-anchor="start" x="2321.5" y="-6.45" font-family="Helvetica,sans-Serif" font-size="14.00">class = Normal Weight</text>
</g>
<!-- 21&#45;&gt;23 -->
<g id="edge23" class="edge">
<title>21&#45;&gt;23</title>
<path fill="none" stroke="black" d="M2235.66,-156.58C2266.7,-132.39 2305.35,-102.28 2336.17,-78.26"/>
<polygon fill="black" stroke="black" points="2338.12,-81.17 2343.86,-72.26 2333.82,-75.65 2338.12,-81.17"/>
</g>
<!-- 25 -->
<g id="node26" class="node">
<title>25</title>
<path fill="#5beacf" stroke="black" d="M2761.25,-243.75C2761.25,-243.75 2616.25,-243.75 2616.25,-243.75 2610.25,-243.75 2604.25,-237.75 2604.25,-231.75 2604.25,-231.75 2604.25,-169 2604.25,-169 2604.25,-163 2610.25,-157 2616.25,-157 2616.25,-157 2761.25,-157 2761.25,-157 2767.25,-157 2773.25,-163 2773.25,-169 2773.25,-169 2773.25,-231.75 2773.25,-231.75 2773.25,-237.75 2767.25,-243.75 2761.25,-243.75"/>
<text xml:space="preserve" text-anchor="start" x="2649.38" y="-226.45" font-family="Helvetica,sans-Serif" font-size="14.00">age ≤ 17.046</text>
<text xml:space="preserve" text-anchor="start" x="2653.5" y="-210.7" font-family="Helvetica,sans-Serif" font-size="14.00">gini = 0.278</text>
<text xml:space="preserve" text-anchor="start" x="2644.12" y="-194.95" font-family="Helvetica,sans-Serif" font-size="14.00">samples = 317</text>
<text xml:space="preserve" text-anchor="start" x="2612.25" y="-179.2" font-family="Helvetica,sans-Serif" font-size="14.00">value = [0, 30, 267, 0, 20]</text>
<text xml:space="preserve" text-anchor="start" x="2620.12" y="-163.45" font-family="Helvetica,sans-Serif" font-size="14.00">class = Obesity Type_I</text>
</g>
<!-- 24&#45;&gt;25 -->
<g id="edge25" class="edge">
<title>24&#45;&gt;25</title>
<path fill="none" stroke="black" d="M2688.75,-329.48C2688.75,-307.07 2688.75,-279.36 2688.75,-255.46"/>
<polygon fill="black" stroke="black" points="2692.25,-255.58 2688.75,-245.58 2685.25,-255.58 2692.25,-255.58"/>
</g>
<!-- 28 -->
<g id="node29" class="node">
<title>28</title>
<path fill="#95ea5f" stroke="black" d="M3058.75,-243.75C3058.75,-243.75 2928.75,-243.75 2928.75,-243.75 2922.75,-243.75 2916.75,-237.75 2916.75,-231.75 2916.75,-231.75 2916.75,-169 2916.75,-169 2916.75,-163 2922.75,-157 2928.75,-157 2928.75,-157 3058.75,-157 3058.75,-157 3064.75,-157 3070.75,-163 3070.75,-169 3070.75,-169 3070.75,-231.75 3070.75,-231.75 3070.75,-237.75 3064.75,-243.75 3058.75,-243.75"/>
<text xml:space="preserve" text-anchor="start" x="2960" y="-226.45" font-family="Helvetica,sans-Serif" font-size="14.00">tue ≤ 1.102</text>
<text xml:space="preserve" text-anchor="start" x="2958.5" y="-210.7" font-family="Helvetica,sans-Serif" font-size="14.00">gini = 0.272</text>
<text xml:space="preserve" text-anchor="start" x="2952.88" y="-194.95" font-family="Helvetica,sans-Serif" font-size="14.00">samples = 80</text>
<text xml:space="preserve" text-anchor="start" x="2924.75" y="-179.2" font-family="Helvetica,sans-Serif" font-size="14.00">value = [0, 67, 13, 0, 0]</text>
<text xml:space="preserve" text-anchor="start" x="2925.5" y="-163.45" font-family="Helvetica,sans-Serif" font-size="14.00">class = Normal Weight</text>
</g>
<!-- 24&#45;&gt;28 -->
<g id="edge28" class="edge">
<title>24&#45;&gt;28</title>
<path fill="none" stroke="black" d="M2765.32,-329.26C2808.55,-305.06 2862.7,-274.74 2907.43,-249.7"/>
<polygon fill="black" stroke="black" points="2909.08,-252.79 2916.09,-244.85 2905.66,-246.68 2909.08,-252.79"/>
</g>
<!-- 26 -->
<g id="node27" class="node">
<title>26</title>
<path fill="#f6b8e8" stroke="black" d="M2658.12,-71C2658.12,-71 2521.38,-71 2521.38,-71 2515.38,-71 2509.38,-65 2509.38,-59 2509.38,-59 2509.38,-12 2509.38,-12 2509.38,-6 2515.38,0 2521.38,0 2521.38,0 2658.12,0 2658.12,0 2664.12,0 2670.12,-6 2670.12,-12 2670.12,-12 2670.12,-59 2670.12,-59 2670.12,-65 2664.12,-71 2658.12,-71"/>
<text xml:space="preserve" text-anchor="start" x="2554.5" y="-53.7" font-family="Helvetica,sans-Serif" font-size="14.00">gini = 0.617</text>
<text xml:space="preserve" text-anchor="start" x="2548.88" y="-37.95" font-family="Helvetica,sans-Serif" font-size="14.00">samples = 33</text>
<text xml:space="preserve" text-anchor="start" x="2524.5" y="-22.2" font-family="Helvetica,sans-Serif" font-size="14.00">value = [0, 8, 8, 0, 17]</text>
<text xml:space="preserve" text-anchor="start" x="2517.38" y="-6.45" font-family="Helvetica,sans-Serif" font-size="14.00">class = Obesity Type_III</text>
</g>
<!-- 25&#45;&gt;26 -->
<g id="edge26" class="edge">
<title>25&#45;&gt;26</title>
<path fill="none" stroke="black" d="M2662.74,-156.58C2648.6,-133.32 2631.14,-104.59 2616.84,-81.07"/>
<polygon fill="black" stroke="black" points="2619.89,-79.36 2611.71,-72.63 2613.91,-82.99 2619.89,-79.36"/>
</g>
<!-- 27 -->
<g id="node28" class="node">
<title>27</title>
<path fill="#4ce7cb" stroke="black" d="M2862.5,-71C2862.5,-71 2725,-71 2725,-71 2719,-71 2713,-65 2713,-59 2713,-59 2713,-12 2713,-12 2713,-6 2719,0 2725,0 2725,0 2862.5,0 2862.5,0 2868.5,0 2874.5,-6 2874.5,-12 2874.5,-12 2874.5,-59 2874.5,-59 2874.5,-65 2868.5,-71 2862.5,-71"/>
<text xml:space="preserve" text-anchor="start" x="2758.5" y="-53.7" font-family="Helvetica,sans-Serif" font-size="14.00">gini = 0.162</text>
<text xml:space="preserve" text-anchor="start" x="2749.12" y="-37.95" font-family="Helvetica,sans-Serif" font-size="14.00">samples = 284</text>
<text xml:space="preserve" text-anchor="start" x="2721" y="-22.2" font-family="Helvetica,sans-Serif" font-size="14.00">value = [0, 22, 259, 0, 3]</text>
<text xml:space="preserve" text-anchor="start" x="2725.12" y="-6.45" font-family="Helvetica,sans-Serif" font-size="14.00">class = Obesity Type_I</text>
</g>
<!-- 25&#45;&gt;27 -->
<g id="edge27" class="edge">
<title>25&#45;&gt;27</title>
<path fill="none" stroke="black" d="M2716.34,-156.58C2731.4,-133.22 2750.02,-104.34 2765.22,-80.75"/>
<polygon fill="black" stroke="black" points="2768,-82.91 2770.47,-72.61 2762.11,-79.12 2768,-82.91"/>
</g>
<!-- 29 -->
<g id="node30" class="node">
<title>29</title>
<path fill="#84e747" stroke="black" d="M3058,-71C3058,-71 2929.5,-71 2929.5,-71 2923.5,-71 2917.5,-65 2917.5,-59 2917.5,-59 2917.5,-12 2917.5,-12 2917.5,-6 2923.5,0 2929.5,0 2929.5,0 3058,0 3058,0 3064,0 3070,-6 3070,-12 3070,-12 3070,-59 3070,-59 3070,-65 3064,-71 3058,-71"/>
<text xml:space="preserve" text-anchor="start" x="2958.5" y="-53.7" font-family="Helvetica,sans-Serif" font-size="14.00">gini = 0.124</text>
<text xml:space="preserve" text-anchor="start" x="2952.88" y="-37.95" font-family="Helvetica,sans-Serif" font-size="14.00">samples = 60</text>
<text xml:space="preserve" text-anchor="start" x="2928.5" y="-22.2" font-family="Helvetica,sans-Serif" font-size="14.00">value = [0, 56, 4, 0, 0]</text>
<text xml:space="preserve" text-anchor="start" x="2925.5" y="-6.45" font-family="Helvetica,sans-Serif" font-size="14.00">class = Normal Weight</text>
</g>
<!-- 28&#45;&gt;29 -->
<g id="edge29" class="edge">
<title>28&#45;&gt;29</title>
<path fill="none" stroke="black" d="M2993.75,-156.58C2993.75,-133.84 2993.75,-105.87 2993.75,-82.65"/>
<polygon fill="black" stroke="black" points="2997.25,-82.85 2993.75,-72.85 2990.25,-82.85 2997.25,-82.85"/>
</g>
<!-- 30 -->
<g id="node31" class="node">
<title>30</title>
<path fill="#e7fadb" stroke="black" d="M3254,-71C3254,-71 3125.5,-71 3125.5,-71 3119.5,-71 3113.5,-65 3113.5,-59 3113.5,-59 3113.5,-12 3113.5,-12 3113.5,-6 3119.5,0 3125.5,0 3125.5,0 3254,0 3254,0 3260,0 3266,-6 3266,-12 3266,-12 3266,-59 3266,-59 3266,-65 3260,-71 3254,-71"/>
<text xml:space="preserve" text-anchor="start" x="3154.5" y="-53.7" font-family="Helvetica,sans-Serif" font-size="14.00">gini = 0.495</text>
<text xml:space="preserve" text-anchor="start" x="3148.88" y="-37.95" font-family="Helvetica,sans-Serif" font-size="14.00">samples = 20</text>
<text xml:space="preserve" text-anchor="start" x="3124.88" y="-22.2" font-family="Helvetica,sans-Serif" font-size="14.00">value = [0, 11, 9, 0, 0]</text>
<text xml:space="preserve" text-anchor="start" x="3121.5" y="-6.45" font-family="Helvetica,sans-Serif" font-size="14.00">class = Normal Weight</text>
</g>
<!-- 28&#45;&gt;30 -->
<g id="edge30" class="edge">
<title>28&#45;&gt;30</title>
<path fill="none" stroke="black" d="M3045.25,-156.58C3074.23,-132.49 3110.28,-102.54 3139.13,-78.57"/>
<polygon fill="black" stroke="black" points="3141.21,-81.39 3146.67,-72.3 3136.74,-76 3141.21,-81.39"/>
</g>
</g>
</svg>
